<svg width="172" height="43" viewBox="0 0 172 43" fill="none" xmlns="http://www.w3.org/2000/svg">
<path d="M10.8933 29.45H17.1892C18.3096 29.45 19.2544 29.3079 20.0236 29.0236C20.7929 28.7226 21.4116 28.338 21.8798 27.8698C22.348 27.4015 22.6825 26.8748 22.8831 26.2895C23.1005 25.6875 23.2092 25.0855 23.2092 24.4835C23.2092 23.5303 23.0002 22.7695 22.5821 22.2009C22.1808 21.6324 21.6959 21.1976 21.1273 20.8966C20.5587 20.5956 19.9735 20.3949 19.3715 20.2946C18.7695 20.1943 18.2845 20.1357 17.9166 20.119V20.0187C18.5019 20.0187 19.0537 19.91 19.5721 19.6926C20.0905 19.4585 20.542 19.1658 20.9266 18.8147C21.328 18.4468 21.6457 18.0287 21.8798 17.5605C22.1139 17.0756 22.231 16.5655 22.231 16.0304C22.231 15.5622 22.1306 15.0856 21.93 14.6007C21.7293 14.1157 21.4199 13.6726 21.0019 13.2713C20.6006 12.8699 20.0738 12.5438 19.4216 12.293C18.7862 12.0255 18.0337 11.8917 17.1641 11.8917H10.8933V29.45ZM13.1759 28.3463V20.6708H15.9351C16.7544 20.6708 17.4651 20.7795 18.0671 20.9969C18.6691 21.2143 19.1624 21.507 19.5471 21.8748C19.9484 22.2427 20.241 22.6692 20.425 23.1541C20.6256 23.639 20.726 24.1491 20.726 24.6842C20.726 25.2695 20.6173 25.7878 20.3999 26.2393C20.1992 26.6908 19.9233 27.0755 19.5721 27.3932C19.221 27.7109 18.8029 27.9534 18.318 28.1206C17.8497 28.2711 17.3481 28.3463 16.813 28.3463H13.1759ZM13.1759 19.5672V12.9953H16.2361C16.8882 12.9953 17.4401 13.0873 17.8916 13.2713C18.3598 13.4552 18.736 13.6977 19.0203 13.9987C19.3213 14.2997 19.5387 14.6425 19.6725 15.0271C19.8062 15.4117 19.8731 15.7963 19.8731 16.1809C19.8731 16.6659 19.7728 17.1174 19.5721 17.5354C19.3882 17.9535 19.1206 18.313 18.7695 18.614C18.435 18.915 18.0421 19.1491 17.5906 19.3163C17.1558 19.4836 16.6876 19.5672 16.1859 19.5672H13.1759ZM27.7276 29.45V11.8917H30.0101V28.0704H39.0652V29.45H27.7276ZM41.3117 20.6708C41.3117 21.6073 41.4873 22.6106 41.8385 23.6808C42.2064 24.7343 42.7749 25.7126 43.5442 26.6156C44.3134 27.5186 45.2916 28.2711 46.4789 28.8731C47.6662 29.4584 49.0876 29.751 50.7431 29.751C51.8635 29.751 52.8752 29.6172 53.7782 29.3497C54.6979 29.0654 55.5173 28.6892 56.2363 28.2209C56.9721 27.7527 57.6075 27.2176 58.1427 26.6156C58.6778 25.9969 59.1125 25.3531 59.447 24.6842C59.7982 23.9986 60.0574 23.313 60.2246 22.6273C60.4085 21.9417 60.5005 21.2896 60.5005 20.6708C60.5005 19.7344 60.3082 18.7394 59.9236 17.6859C59.539 16.6157 58.9453 15.6291 58.1427 14.7261C57.34 13.8231 56.3199 13.079 55.0825 12.4937C53.8618 11.8917 52.4153 11.5907 50.7431 11.5907C49.0876 11.5907 47.6662 11.8833 46.4789 12.4686C45.2916 13.0539 44.3134 13.798 43.5442 14.701C42.7749 15.5873 42.2064 16.5655 41.8385 17.6358C41.4873 18.706 41.3117 19.7177 41.3117 20.6708ZM43.7699 20.6708C43.7699 19.5003 43.9455 18.4301 44.2967 17.4602C44.6645 16.4736 45.1579 15.6291 45.7766 14.9268C46.412 14.2244 47.1562 13.681 48.009 13.2963C48.8618 12.895 49.7899 12.6943 50.7932 12.6943C51.7799 12.6943 52.7079 12.895 53.5775 13.2963C54.4638 13.681 55.233 14.2244 55.8852 14.9268C56.554 15.6291 57.0808 16.4736 57.4654 17.4602C57.85 18.4301 58.0423 19.5003 58.0423 20.6708C58.0423 21.8414 57.85 22.92 57.4654 23.9066C57.0808 24.8765 56.554 25.7126 55.8852 26.4149C55.233 27.1173 54.4638 27.6691 53.5775 28.0704C52.7079 28.455 51.7799 28.6473 50.7932 28.6473C49.7899 28.6473 48.8618 28.455 48.009 28.0704C47.1562 27.6691 46.412 27.1173 45.7766 26.4149C45.1579 25.7126 44.6645 24.8765 44.2967 23.9066C43.9455 22.92 43.7699 21.8414 43.7699 20.6708ZM80.9995 21.624H76.033V22.6524H78.8423V27.1925C78.0898 27.6775 77.3206 28.037 76.5346 28.2711C75.7487 28.5052 74.854 28.6223 73.8507 28.6223C72.5297 28.6223 71.3758 28.4216 70.3892 28.0203C69.4026 27.6189 68.5832 27.0671 67.931 26.3648C67.2789 25.6457 66.7856 24.8012 66.4511 23.8313C66.1334 22.8447 65.9745 21.7662 65.9745 20.5956C65.9745 19.4418 66.125 18.3799 66.426 17.41C66.7438 16.4401 67.212 15.604 67.8307 14.9017C68.4494 14.1993 69.2019 13.6559 70.0882 13.2713C70.9912 12.8866 72.0363 12.6943 73.2236 12.6943C74.0096 12.6943 74.7453 12.778 75.431 12.9452C76.1166 13.1124 76.7269 13.3298 77.262 13.5973C77.7972 13.8649 78.2319 14.1743 78.5664 14.5254C78.9175 14.8599 79.1433 15.2027 79.2436 15.5538H81.0496C80.8991 15.186 80.6399 14.7763 80.272 14.3248C79.9209 13.8565 79.4359 13.4218 78.8172 13.0204C78.1985 12.6191 77.4293 12.2846 76.5095 12.0171C75.6065 11.7328 74.5363 11.5907 73.2989 11.5907C71.8775 11.5907 70.5648 11.7913 69.3608 12.1927C68.1735 12.594 67.1451 13.1709 66.2755 13.9234C65.406 14.6759 64.7287 15.604 64.2438 16.7077C63.7588 17.7946 63.5164 19.0321 63.5164 20.42C63.5164 21.6073 63.7003 22.7611 64.0682 23.8815C64.4528 24.9852 65.0297 25.9802 65.799 26.8664C66.5849 27.736 67.5799 28.4383 68.7839 28.9734C69.9879 29.4918 71.426 29.751 73.0982 29.751C74.3524 29.751 75.4644 29.6172 76.4343 29.3497C77.4042 29.0654 78.2068 28.756 78.8423 28.4216V29.45H80.9995V21.624ZM88.0575 22.1257C88.4923 22.2427 88.9605 22.3431 89.4621 22.4267C89.9638 22.4936 90.5156 22.527 91.1176 22.527C92.1377 22.527 93.0407 22.3849 93.8266 22.1006C94.6126 21.8163 95.2648 21.4317 95.7831 20.9468C96.3183 20.4451 96.7196 19.8765 96.9871 19.2411C97.2547 18.5889 97.3885 17.895 97.3885 17.1592C97.3885 16.4568 97.2714 15.788 97.0373 15.1525C96.8032 14.5003 96.4437 13.9402 95.9587 13.4719C95.4905 12.987 94.8969 12.6024 94.1778 12.3181C93.4588 12.0338 92.6143 11.8917 91.6444 11.8917H85.7749V29.45H88.0575V22.1257ZM88.0575 12.9953H90.6912C91.3936 12.9953 92.0123 13.1208 92.5474 13.3716C93.0825 13.6224 93.5256 13.9569 93.8768 14.3749C94.228 14.7763 94.4872 15.2361 94.6544 15.7545C94.8383 16.2562 94.9303 16.7578 94.9303 17.2595C94.9303 17.7445 94.8467 18.2378 94.6795 18.7394C94.529 19.2244 94.2781 19.6675 93.927 20.0688C93.5758 20.4702 93.1327 20.7963 92.5976 21.0471C92.0624 21.2979 91.4186 21.4233 90.6661 21.4233C90.1478 21.4233 89.6712 21.4066 89.2364 21.3732C88.8016 21.323 88.4086 21.231 88.0575 21.0973V12.9953ZM101.409 11.8917V29.45H103.691V21.6993H104.795C105.263 21.6993 105.648 21.7411 105.949 21.8247C106.267 21.9083 106.551 22.0504 106.802 22.2511C107.053 22.4518 107.287 22.711 107.504 23.0287C107.722 23.3464 107.981 23.7394 108.282 24.2076L110.263 27.1423C110.514 27.527 110.757 27.8781 110.991 28.1958C111.242 28.5136 111.509 28.7895 111.793 29.0236C112.078 29.241 112.395 29.4166 112.747 29.5503C113.114 29.6841 113.549 29.751 114.051 29.751C114.419 29.751 114.72 29.7343 114.954 29.7008C115.188 29.6674 115.422 29.5838 115.656 29.45V28.5219C115.573 28.5387 115.489 28.5554 115.405 28.5721C115.322 28.5721 115.238 28.5721 115.155 28.5721C114.803 28.5721 114.494 28.5219 114.226 28.4216C113.959 28.3213 113.708 28.1791 113.474 27.9952C113.24 27.7945 113.014 27.5604 112.797 27.2928C112.579 27.0086 112.354 26.6908 112.119 26.3397C111.417 25.3196 110.874 24.5086 110.489 23.9066C110.104 23.2879 109.795 22.8113 109.561 22.4768C109.344 22.1424 109.16 21.8999 109.009 21.7494C108.875 21.5989 108.708 21.4735 108.507 21.3732L108.257 21.2478V21.1474C109.059 21.0973 109.745 20.9217 110.313 20.6207C110.899 20.3197 111.375 19.9434 111.743 19.4919C112.111 19.0404 112.379 18.5555 112.546 18.0371C112.713 17.502 112.797 16.9836 112.797 16.4819C112.797 16.0304 112.705 15.5371 112.521 15.002C112.354 14.4669 112.053 13.9736 111.618 13.5221C111.2 13.0539 110.623 12.6693 109.887 12.3683C109.151 12.0505 108.223 11.8917 107.103 11.8917H101.409ZM103.691 12.9953H106.225C106.86 12.9953 107.429 13.0873 107.931 13.2713C108.449 13.4552 108.892 13.7144 109.26 14.0488C109.628 14.3666 109.904 14.7512 110.088 15.2027C110.288 15.6542 110.389 16.1475 110.389 16.6826C110.389 17.1341 110.297 17.594 110.113 18.0622C109.946 18.5137 109.686 18.9317 109.335 19.3163C108.984 19.6842 108.549 19.9852 108.031 20.2193C107.529 20.4535 106.944 20.5705 106.275 20.5705H103.691V12.9953ZM119.664 11.8917V29.45H131.002V28.0704H121.946V20.721H129.722V19.5672H121.946V13.2713H131.002V11.8917H119.664ZM132.922 25.0103C132.955 25.7293 133.139 26.3815 133.474 26.9668C133.825 27.552 134.293 28.0537 134.878 28.4718C135.48 28.8731 136.183 29.1908 136.985 29.4249C137.788 29.6423 138.666 29.751 139.619 29.751C140.589 29.751 141.459 29.634 142.228 29.3998C143.014 29.1657 143.683 28.8313 144.235 28.3965C144.786 27.9617 145.213 27.435 145.514 26.8163C145.815 26.1975 145.965 25.5119 145.965 24.7594C145.965 23.7227 145.706 22.8782 145.188 22.226C144.669 21.5571 144.017 21.0053 143.231 20.5705C142.462 20.119 141.618 19.7428 140.698 19.4418C139.795 19.1408 138.95 18.823 138.164 18.4886C137.395 18.1542 136.751 17.7695 136.233 17.3348C135.715 16.9 135.455 16.3231 135.455 15.604C135.455 15.2027 135.539 14.8264 135.706 14.4753C135.89 14.1241 136.149 13.8231 136.484 13.5723C136.835 13.3047 137.261 13.0957 137.763 12.9452C138.265 12.778 138.842 12.6943 139.494 12.6943C140.581 12.6943 141.5 12.9285 142.253 13.3967C143.022 13.8482 143.474 14.5672 143.607 15.5538H145.313C145.213 14.9351 144.987 14.3833 144.636 13.8983C144.285 13.3967 143.842 12.9786 143.306 12.6442C142.771 12.293 142.161 12.0338 141.475 11.8666C140.806 11.6827 140.104 11.5907 139.368 11.5907C138.599 11.5907 137.863 11.691 137.161 11.8917C136.475 12.0923 135.865 12.385 135.33 12.7696C134.812 13.1542 134.394 13.6391 134.076 14.2244C133.775 14.8097 133.624 15.4786 133.624 16.2311C133.624 17.2177 133.875 18.012 134.377 18.614C134.878 19.216 135.506 19.7177 136.258 20.119C137.027 20.5203 137.855 20.8632 138.741 21.1474C139.628 21.4317 140.447 21.7578 141.199 22.1257C141.969 22.4768 142.604 22.9116 143.106 23.43C143.607 23.9484 143.858 24.6424 143.858 25.5119C143.858 26.5989 143.457 27.3932 142.654 27.8948C141.868 28.3965 140.815 28.6473 139.494 28.6473C138.44 28.6473 137.596 28.5136 136.96 28.246C136.325 27.9617 135.84 27.6273 135.506 27.2427C135.171 26.8581 134.945 26.4651 134.828 26.0638C134.711 25.6457 134.644 25.2945 134.628 25.0103H132.922ZM148.85 25.0103C148.883 25.7293 149.067 26.3815 149.402 26.9668C149.753 27.552 150.221 28.0537 150.806 28.4718C151.408 28.8731 152.111 29.1908 152.913 29.4249C153.716 29.6423 154.594 29.751 155.547 29.751C156.517 29.751 157.387 29.634 158.156 29.3998C158.942 29.1657 159.611 28.8313 160.162 28.3965C160.714 27.9617 161.141 27.435 161.442 26.8163C161.743 26.1975 161.893 25.5119 161.893 24.7594C161.893 23.7227 161.634 22.8782 161.116 22.226C160.597 21.5571 159.945 21.0053 159.159 20.5705C158.39 20.119 157.545 19.7428 156.626 19.4418C155.723 19.1408 154.878 18.823 154.092 18.4886C153.323 18.1542 152.679 17.7695 152.161 17.3348C151.642 16.9 151.383 16.3231 151.383 15.604C151.383 15.2027 151.467 14.8264 151.634 14.4753C151.818 14.1241 152.077 13.8231 152.412 13.5723C152.763 13.3047 153.189 13.0957 153.691 12.9452C154.193 12.778 154.77 12.6943 155.422 12.6943C156.509 12.6943 157.428 12.9285 158.181 13.3967C158.95 13.8482 159.402 14.5672 159.535 15.5538H161.241C161.141 14.9351 160.915 14.3833 160.564 13.8983C160.213 13.3967 159.769 12.9786 159.234 12.6442C158.699 12.293 158.089 12.0338 157.403 11.8666C156.734 11.6827 156.032 11.5907 155.296 11.5907C154.527 11.5907 153.791 11.691 153.089 11.8917C152.403 12.0923 151.793 12.385 151.258 12.7696C150.739 13.1542 150.321 13.6391 150.004 14.2244C149.703 14.8097 149.552 15.4786 149.552 16.2311C149.552 17.2177 149.803 18.012 150.305 18.614C150.806 19.216 151.433 19.7177 152.186 20.119C152.955 20.5203 153.783 20.8632 154.669 21.1474C155.555 21.4317 156.375 21.7578 157.127 22.1257C157.897 22.4768 158.532 22.9116 159.034 23.43C159.535 23.9484 159.786 24.6424 159.786 25.5119C159.786 26.5989 159.385 27.3932 158.582 27.8948C157.796 28.3965 156.743 28.6473 155.422 28.6473C154.368 28.6473 153.524 28.5136 152.888 28.246C152.253 27.9617 151.768 27.6273 151.433 27.2427C151.099 26.8581 150.873 26.4651 150.756 26.0638C150.639 25.6457 150.572 25.2945 150.556 25.0103H148.85Z" fill="black"/>
<rect x="1.58329" y="1.58335" width="168.117" height="39.1167" stroke="black" stroke-width="0.3"/>
<rect x="0.15" y="0.15" width="171.7" height="42.7" stroke="black" stroke-width="0.3"/>
</svg>
